<svg width="15" height="16" viewBox="0 0 15 16" fill="none" xmlns="http://www.w3.org/2000/svg">
<path fill-rule="evenodd" clip-rule="evenodd" d="M10.8353 8.80201H8.13526V11.5021C8.13526 11.8528 7.85072 12.1373 7.5 12.1373C7.14928 12.1373 6.86474 11.8528 6.86474 11.5021V8.80201H4.16467C3.81396 8.80201 3.52941 8.51747 3.52941 8.16675C3.52941 7.81604 3.81396 7.53149 4.16467 7.53149H6.86474V4.83143C6.86474 4.48071 7.14928 4.19616 7.5 4.19616C7.85072 4.19616 8.13526 4.48071 8.13526 4.83143V7.53149H10.8353C11.186 7.53149 11.4706 7.81604 11.4706 8.16675C11.4706 8.51747 11.186 8.80201 10.8353 8.80201ZM7.5 0.666748C3.36434 0.666748 0 4.03108 0 8.16675C0 12.3024 3.36434 15.6667 7.5 15.6667C11.6357 15.6667 15 12.3024 15 8.16675C15 4.03108 11.6357 0.666748 7.5 0.666748Z" fill="#04B075"/>
</svg>
