<svg width="10" height="10" viewBox="0 0 10 10" fill="none" xmlns="http://www.w3.org/2000/svg">
<path d="M5 0C4.01109 0 3.0444 0.293245 2.22215 0.842652C1.3999 1.39206 0.759043 2.17295 0.380605 3.08658C0.00216642 4.00021 -0.0968502 5.00555 0.0960758 5.97545C0.289002 6.94536 0.765206 7.83627 1.46447 8.53553C2.16373 9.23479 3.05465 9.711 4.02455 9.90392C4.99445 10.0969 5.99979 9.99783 6.91342 9.6194C7.82705 9.24096 8.60794 8.60009 9.15735 7.77785C9.70676 6.9556 10 5.98891 10 5C9.9986 3.67435 9.47137 2.40339 8.53399 1.46601C7.59661 0.528633 6.32565 0.00139991 5 0ZM6.92308 5.38461H3.07692C2.97492 5.38461 2.87709 5.34409 2.80496 5.27196C2.73283 5.19983 2.69231 5.10201 2.69231 5C2.69231 4.89799 2.73283 4.80016 2.80496 4.72803C2.87709 4.65591 2.97492 4.61538 3.07692 4.61538H6.92308C7.02508 4.61538 7.12291 4.65591 7.19504 4.72803C7.26717 4.80016 7.30769 4.89799 7.30769 5C7.30769 5.10201 7.26717 5.19983 7.19504 5.27196C7.12291 5.34409 7.02508 5.38461 6.92308 5.38461Z" fill="#04B075"/>
</svg>
