<svg width="20" height="20" viewBox="0 0 20 20" fill="none" xmlns="http://www.w3.org/2000/svg">
<path d="M3 20C2.45 20 1.97933 19.8043 1.588 19.413C1.19667 19.0217 1.00067 18.5507 1 18V6.725C0.7 6.54167 0.458333 6.30433 0.275 6.013C0.0916668 5.72167 0 5.384 0 5V2C0 1.45 0.196 0.979333 0.588 0.588C0.98 0.196667 1.45067 0.000666667 2 0H18C18.55 0 19.021 0.196 19.413 0.588C19.805 0.98 20.0007 1.45067 20 2V5C20 5.38333 19.9083 5.721 19.725 6.013C19.5417 6.305 19.3 6.542 19 6.724V18C19 18.55 18.8043 19.021 18.413 19.413C18.0217 19.805 17.5507 20.0007 17 20H3ZM2 5H18V2H2V5ZM8 12H12C12.2833 12 12.521 11.904 12.713 11.712C12.905 11.52 13.0007 11.2827 13 11C12.9993 10.7173 12.9033 10.48 12.712 10.288C12.5207 10.096 12.2833 10 12 10H8C7.71667 10 7.47933 10.096 7.288 10.288C7.09667 10.48 7.00067 10.7173 7 11C6.99933 11.2827 7.09533 11.5203 7.288 11.713C7.48067 11.9057 7.718 12.0013 8 12Z" fill="#A6ACB8"/>
</svg>
