<svg width="23" height="22" viewBox="0 0 23 22" fill="none" xmlns="http://www.w3.org/2000/svg">
<path d="M22 3.65H22.15V3.5V2V1.85H22H19.9V0.5V0.35H19.75H18.25H18.1V0.5V1.85H17.5C16.5899 1.85 15.85 2.59071 15.85 3.5V5C15.85 5.91009 16.5899 6.65 17.5 6.65H20.35V7.85H16H15.85V8V9.5V9.65H16H18.1V11V11.15H18.25H19.75H19.9V11V9.65H20.5C21.4101 9.65 22.15 8.91009 22.15 8V6.5C22.15 5.59071 21.4101 4.85 20.5 4.85H17.65V3.65H22ZM17.5 13.85H17.35V14V15.5V15.65H17.5H19.0774L16.75 17.9773L15.1371 16.3637L15.1371 16.3637C14.9686 16.1951 14.74 16.1003 14.5017 16.1H14.5015H14.5C14.3819 16.1 14.2649 16.1233 14.1559 16.1686C14.0468 16.2138 13.9477 16.2802 13.8643 16.3638L9.89394 20.3334L9.78786 20.4395L9.89393 20.5456L10.9544 21.6061L11.0605 21.7121L11.1666 21.6061L14.5007 18.2726L16.1137 19.8863L16.1137 19.8863C16.2825 20.0551 16.5114 20.1498 16.75 20.1498C16.9886 20.1498 17.2175 20.0551 17.3863 19.8863L17.3863 19.8863L20.35 16.9226V18.5V18.65H20.5H22H22.15V18.5V14V13.85H22H17.5ZM2.5 21.65H2.65V21.5V17.75C2.65 15.7651 4.26509 14.15 6.25 14.15H10.7499C11.2564 14.1504 11.7572 14.2575 12.2196 14.4643C12.682 14.6711 13.0956 14.973 13.4335 15.3503L13.5336 15.462L13.6453 15.362L14.7628 14.3615L14.8745 14.2615L14.7745 14.1497C13.7508 13.0057 12.2844 12.35 10.75 12.35H6.25C3.27216 12.35 0.85 14.7722 0.85 17.75V21.5V21.65H1H2.5ZM8.5 11.15C9.93217 11.15 11.3057 10.5811 12.3184 9.56838C13.3311 8.55568 13.9 7.18217 13.9 5.75C13.9 4.31783 13.3311 2.94432 12.3184 1.93162C11.3057 0.918927 9.93217 0.35 8.5 0.35C7.06783 0.35 5.69432 0.918927 4.68162 1.93162C3.66893 2.94432 3.1 4.31783 3.1 5.75C3.1 7.18217 3.66893 8.55568 4.68162 9.56838C5.69432 10.5811 7.06783 11.15 8.5 11.15ZM8.5 2.15C9.45478 2.15 10.3705 2.52928 11.0456 3.20442C11.7207 3.87955 12.1 4.79522 12.1 5.75C12.1 6.70478 11.7207 7.62045 11.0456 8.29558C10.3705 8.97072 9.45478 9.35 8.5 9.35C7.54522 9.35 6.62955 8.97072 5.95442 8.29558C5.27928 7.62045 4.9 6.70478 4.9 5.75C4.9 4.79522 5.27928 3.87955 5.95442 3.20442C6.62955 2.52928 7.54522 2.15 8.5 2.15Z" fill="#A6ACB8" stroke="#A6ACB8" stroke-width="0.3"/>
</svg>
