<svg width="32" height="28" viewBox="0 0 32 28" fill="none" xmlns="http://www.w3.org/2000/svg">
<path d="M25.7586 25.7585H13.87V17.8328H11.8886V25.7585H5.94432V17.8328H3.96289V25.7585C3.96289 26.284 4.17165 26.788 4.54324 27.1596C4.91483 27.5312 5.41881 27.7399 5.94432 27.7399H25.7586C26.2841 27.7399 26.7881 27.5312 27.1597 27.1596C27.5313 26.788 27.74 26.284 27.74 25.7585V17.8328H25.7586V25.7585Z" fill="#4ADAA7"/>
<path d="M31.4948 9.18393L27.4527 1.09969C27.2887 0.769575 27.0358 0.491762 26.7225 0.297491C26.4092 0.103221 26.048 0.000195609 25.6793 0H6.02356C5.65493 0.000195609 5.29366 0.103221 4.98038 0.297491C4.6671 0.491762 4.41422 0.769575 4.25018 1.09969L0.208065 9.18393C0.0700551 9.46082 -0.00119709 9.76619 1.52144e-05 10.0756V13.127C-0.000889334 13.5899 0.16035 14.0386 0.455744 14.3951C0.892311 14.8955 1.4315 15.2961 2.03666 15.5696C2.64182 15.8432 3.29878 15.9832 3.96287 15.9802C5.04649 15.9819 6.09705 15.6072 6.93502 14.9202C7.77297 15.6076 8.82331 15.9833 9.90716 15.9833C10.991 15.9833 12.0413 15.6076 12.8793 14.9202C13.7173 15.6076 14.7676 15.9833 15.8514 15.9833C16.9353 15.9833 17.9856 15.6076 18.8236 14.9202C19.6615 15.6076 20.7119 15.9833 21.7957 15.9833C22.8796 15.9833 23.9299 15.6076 24.7679 14.9202C25.7033 15.6882 26.9 16.0636 28.1065 15.9676C29.313 15.8715 30.4352 15.3114 31.2372 14.405C31.5362 14.0499 31.701 13.6011 31.7029 13.1369V10.0756C31.7041 9.76619 31.6328 9.46082 31.4948 9.18393ZM12.8793 10.3034V11.8093L12.0669 12.8793C11.8175 13.2192 11.4916 13.4956 11.1155 13.6861C10.7395 13.8767 10.3238 13.9759 9.90221 13.9759C9.48062 13.9759 9.06497 13.8767 8.68889 13.6861C8.31281 13.4956 7.98688 13.2192 7.7375 12.8793L6.93502 11.7697V10.3034L9.50097 1.98143H13.87L12.8793 10.3034ZM24.7679 11.7697L23.9654 12.8793C23.716 13.2192 23.3901 13.4956 23.014 13.6861C22.6379 13.8767 22.2223 13.9759 21.8007 13.9759C21.3791 13.9759 20.9634 13.8767 20.5874 13.6861C20.2113 13.4956 19.8854 13.2192 19.636 12.8793L18.8236 11.7697V10.3034L17.8329 1.98143H22.2416L24.7679 10.3034V11.7697Z" fill="#04B075"/>
</svg>
